<svg width="437" height="68" viewBox="0 0 437 68" fill="none" xmlns="http://www.w3.org/2000/svg">
<g filter="url(#filter0_i_51_9)">
<path d="M0.656506 66V1.6H31.6605C37.6712 1.6 42.8538 2.58133 47.2085 4.544C51.6245 6.50666 55.0285 9.328 57.4205 13.008C59.8125 16.6267 61.0085 20.92 61.0085 25.888C61.0085 30.856 59.8125 35.1493 57.4205 38.768C55.0285 42.3867 51.6245 45.208 47.2085 47.232C42.8538 49.1947 37.6712 50.176 31.6605 50.176H12.7085L22.3685 40.884V66H0.656506ZM22.3685 43.276L12.7085 33.432H30.2805C33.2858 33.432 35.4938 32.7573 36.9045 31.408C38.3765 30.0587 39.1125 28.2187 39.1125 25.888C39.1125 23.5573 38.3765 21.7173 36.9045 20.368C35.4938 19.0187 33.2858 18.344 30.2805 18.344H12.7085L22.3685 8.5V43.276ZM77.7892 66V1.6H99.5012V49.164H128.573V66H77.7892ZM138.137 66L166.289 1.6H187.633L215.785 66H193.337L172.545 11.904H181.009L160.217 66H138.137ZM154.881 54.776L160.401 39.136H190.025L195.545 54.776H154.881ZM228.91 66V1.6H246.758L279.51 40.792H271.23V1.6H292.39V66H274.542L241.79 26.808H250.07V66H228.91ZM326.495 66V18.436H307.635V1.6H367.067V18.436H348.207V66H326.495ZM406.379 67.472C400.981 67.472 395.768 66.8587 390.739 65.632C385.709 64.4053 381.569 62.8107 378.319 60.848L385.311 45.024C388.377 46.8027 391.781 48.244 395.523 49.348C399.325 50.3907 403.005 50.912 406.563 50.912C408.648 50.912 410.273 50.7893 411.439 50.544C412.665 50.2373 413.555 49.8387 414.107 49.348C414.659 48.796 414.935 48.152 414.935 47.416C414.935 46.2507 414.291 45.3307 413.003 44.656C411.715 43.9813 409.997 43.4293 407.851 43C405.765 42.5093 403.465 42.0187 400.951 41.528C398.436 40.976 395.891 40.2707 393.315 39.412C390.8 38.5533 388.469 37.4187 386.323 36.008C384.237 34.5973 382.551 32.7573 381.263 30.488C379.975 28.1573 379.331 25.2747 379.331 21.84C379.331 17.8533 380.435 14.2347 382.643 10.984C384.912 7.672 388.255 5.03467 392.671 3.072C397.148 1.10933 402.699 0.127998 409.323 0.127998C413.677 0.127998 417.971 0.587998 422.203 1.508C426.435 2.428 430.237 3.83866 433.611 5.74L427.079 21.472C423.889 19.8773 420.792 18.6813 417.787 17.884C414.843 17.0867 411.96 16.688 409.139 16.688C407.053 16.688 405.397 16.872 404.171 17.24C402.944 17.608 402.055 18.0987 401.503 18.712C401.012 19.3253 400.767 20 400.767 20.736C400.767 21.84 401.411 22.7293 402.699 23.404C403.987 24.0173 405.673 24.5387 407.759 24.968C409.905 25.3973 412.236 25.8573 414.751 26.348C417.327 26.8387 419.872 27.5133 422.387 28.372C424.901 29.2307 427.201 30.3653 429.287 31.776C431.433 33.1867 433.151 35.0267 434.439 37.296C435.727 39.5653 436.371 42.3867 436.371 45.76C436.371 49.6853 435.236 53.304 432.967 56.616C430.759 59.8667 427.447 62.504 423.031 64.528C418.615 66.4907 413.064 67.472 406.379 67.472Z" fill="#F2F2F2"/>
</g>
<defs>
<filter id="filter0_i_51_9" x="0.656494" y="0.12793" width="435.714" height="71.344" filterUnits="userSpaceOnUse" color-interpolation-filters="sRGB">
<feFlood flood-opacity="0" result="BackgroundImageFix"/>
<feBlend mode="normal" in="SourceGraphic" in2="BackgroundImageFix" result="shape"/>
<feColorMatrix in="SourceAlpha" type="matrix" values="0 0 0 0 0 0 0 0 0 0 0 0 0 0 0 0 0 0 127 0" result="hardAlpha"/>
<feOffset dy="4"/>
<feGaussianBlur stdDeviation="2"/>
<feComposite in2="hardAlpha" operator="arithmetic" k2="-1" k3="1"/>
<feColorMatrix type="matrix" values="0 0 0 0 0 0 0 0 0 0 0 0 0 0 0 0 0 0 0.25 0"/>
<feBlend mode="normal" in2="shape" result="effect1_innerShadow_51_9"/>
</filter>
</defs>
</svg>
